<mxfile host="Electron" modified="2023-10-13T09:27:14.195Z" agent="Mozilla/5.0 (Windows NT 10.0; Win64; x64) AppleWebKit/537.36 (KHTML, like Gecko) draw.io/22.0.2 Chrome/114.0.5735.289 Electron/25.8.4 Safari/537.36" etag="23KVur3uBUSh2OLVH8rp" version="22.0.2" type="device">
  <diagram name="Seite-1" id="HqBW4fTeCPGUdDQ781vC">
    <mxGraphModel dx="1434" dy="844" grid="1" gridSize="10" guides="1" tooltips="1" connect="1" arrows="1" fold="1" page="1" pageScale="1" pageWidth="1169" pageHeight="1654" math="0" shadow="0">
      <root>
        <mxCell id="0" />
        <mxCell id="1" parent="0" />
        <mxCell id="SHAmAD_ecb-zwq3bcNpp-117" value="Process&amp;nbsp; &lt;br&gt;package" style="shape=cube;whiteSpace=wrap;html=1;boundedLbl=1;backgroundOutline=1;darkOpacity=0.05;darkOpacity2=0.1;fontFamily=Helvetica;fontSize=11;verticalAlign=middle;labelPosition=right;verticalLabelPosition=middle;align=left;fillColor=#f8cecc;strokeColor=#b85450;" parent="1" vertex="1">
          <mxGeometry x="920" y="146.25" width="180" height="212.5" as="geometry" />
        </mxCell>
        <mxCell id="SHAmAD_ecb-zwq3bcNpp-87" style="edgeStyle=orthogonalEdgeStyle;shape=connector;rounded=0;orthogonalLoop=1;jettySize=auto;html=1;labelBackgroundColor=default;strokeColor=default;fontFamily=Helvetica;fontSize=11;fontColor=default;endArrow=classic;" parent="1" source="XJ6b9KdQrqp1vy3ghaq9-3" target="XJ6b9KdQrqp1vy3ghaq9-11" edge="1">
          <mxGeometry relative="1" as="geometry" />
        </mxCell>
        <mxCell id="XJ6b9KdQrqp1vy3ghaq9-3" value="DVPD" style="shape=note;whiteSpace=wrap;html=1;backgroundOutline=1;darkOpacity=0.05;fillColor=#F3AC0C;gradientColor=none;" parent="1" vertex="1">
          <mxGeometry x="160" y="57.5" width="80" height="32.5" as="geometry" />
        </mxCell>
        <mxCell id="SHAmAD_ecb-zwq3bcNpp-106" style="edgeStyle=orthogonalEdgeStyle;shape=connector;rounded=0;orthogonalLoop=1;jettySize=auto;html=1;entryX=0;entryY=0.5;entryDx=0;entryDy=0;entryPerimeter=0;labelBackgroundColor=default;strokeColor=default;fontFamily=Helvetica;fontSize=11;fontColor=default;endArrow=classic;" parent="1" source="XJ6b9KdQrqp1vy3ghaq9-5" target="SHAmAD_ecb-zwq3bcNpp-105" edge="1">
          <mxGeometry relative="1" as="geometry" />
        </mxCell>
        <mxCell id="XJ6b9KdQrqp1vy3ghaq9-5" value="DDL Generator" style="rounded=1;whiteSpace=wrap;html=1;" parent="1" vertex="1">
          <mxGeometry x="240" y="312.5" width="105" height="40" as="geometry" />
        </mxCell>
        <mxCell id="SHAmAD_ecb-zwq3bcNpp-107" style="edgeStyle=orthogonalEdgeStyle;shape=connector;rounded=0;orthogonalLoop=1;jettySize=auto;html=1;entryX=0.5;entryY=0;entryDx=0;entryDy=0;labelBackgroundColor=default;strokeColor=default;fontFamily=Helvetica;fontSize=11;fontColor=default;endArrow=classic;" parent="1" source="XJ6b9KdQrqp1vy3ghaq9-11" target="XJ6b9KdQrqp1vy3ghaq9-18" edge="1">
          <mxGeometry relative="1" as="geometry" />
        </mxCell>
        <mxCell id="XJ6b9KdQrqp1vy3ghaq9-11" value="DVPD Compiler" style="rounded=1;whiteSpace=wrap;html=1;" parent="1" vertex="1">
          <mxGeometry x="90" y="130" width="100" height="45" as="geometry" />
        </mxCell>
        <mxCell id="XJ6b9KdQrqp1vy3ghaq9-18" value="Basic pipeline properties" style="rounded=0;whiteSpace=wrap;html=1;fillColor=#F3AC0C;gradientColor=none;fontSize=10;" parent="1" vertex="1">
          <mxGeometry x="80" y="212.5" width="120" height="20" as="geometry" />
        </mxCell>
        <mxCell id="XJ6b9KdQrqp1vy3ghaq9-25" value="Example A: DDL and Documentation Generation only" style="rounded=0;whiteSpace=wrap;html=1;strokeColor=none;fillColor=#BFBFBF;fontStyle=1;align=left;fontSize=16;" parent="1" vertex="1">
          <mxGeometry x="40" y="20" width="1110" height="30" as="geometry" />
        </mxCell>
        <mxCell id="XJ6b9KdQrqp1vy3ghaq9-44" value="inkrement &amp;amp; deletion propterties" style="rounded=0;whiteSpace=wrap;html=1;fillColor=#F3AC0C;gradientColor=none;fontSize=10;" parent="1" vertex="1">
          <mxGeometry x="80" y="342.5" width="120" height="30" as="geometry" />
        </mxCell>
        <mxCell id="SHAmAD_ecb-zwq3bcNpp-103" style="edgeStyle=orthogonalEdgeStyle;shape=connector;rounded=0;orthogonalLoop=1;jettySize=auto;html=1;labelBackgroundColor=default;strokeColor=default;fontFamily=Helvetica;fontSize=11;fontColor=default;endArrow=classic;" parent="1" source="SHAmAD_ecb-zwq3bcNpp-85" target="XJ6b9KdQrqp1vy3ghaq9-5" edge="1">
          <mxGeometry relative="1" as="geometry" />
        </mxCell>
        <mxCell id="SHAmAD_ecb-zwq3bcNpp-85" value="structure of &lt;br&gt;data vault tables" style="rounded=0;whiteSpace=wrap;html=1;fillColor=#F3AC0C;gradientColor=none;fontSize=10;" parent="1" vertex="1">
          <mxGeometry x="80" y="282.5" width="120" height="30" as="geometry" />
        </mxCell>
        <mxCell id="SHAmAD_ecb-zwq3bcNpp-88" style="edgeStyle=orthogonalEdgeStyle;shape=connector;rounded=0;orthogonalLoop=1;jettySize=auto;html=1;labelBackgroundColor=default;strokeColor=default;fontFamily=Helvetica;fontSize=11;fontColor=default;endArrow=classic;" parent="1" source="SHAmAD_ecb-zwq3bcNpp-86" target="XJ6b9KdQrqp1vy3ghaq9-11" edge="1">
          <mxGeometry relative="1" as="geometry" />
        </mxCell>
        <mxCell id="SHAmAD_ecb-zwq3bcNpp-86" value="model profile" style="shape=note;whiteSpace=wrap;html=1;backgroundOutline=1;darkOpacity=0.05;fillColor=#F3AC0C;gradientColor=none;size=24;" parent="1" vertex="1">
          <mxGeometry x="40" y="60" width="90" height="30" as="geometry" />
        </mxCell>
        <mxCell id="SHAmAD_ecb-zwq3bcNpp-104" style="edgeStyle=orthogonalEdgeStyle;shape=connector;rounded=0;orthogonalLoop=1;jettySize=auto;html=1;labelBackgroundColor=default;strokeColor=default;fontFamily=Helvetica;fontSize=11;fontColor=default;endArrow=classic;" parent="1" source="SHAmAD_ecb-zwq3bcNpp-89" edge="1">
          <mxGeometry relative="1" as="geometry">
            <mxPoint x="240" y="332.5" as="targetPoint" />
          </mxGeometry>
        </mxCell>
        <mxCell id="SHAmAD_ecb-zwq3bcNpp-89" value="structure of &lt;br&gt;stage table" style="rounded=0;whiteSpace=wrap;html=1;fillColor=#F3AC0C;gradientColor=none;fontSize=10;" parent="1" vertex="1">
          <mxGeometry x="80" y="312.5" width="120" height="30" as="geometry" />
        </mxCell>
        <mxCell id="W-QXEZ3p7k4MNYrwXksq-3" style="edgeStyle=orthogonalEdgeStyle;shape=connector;rounded=0;orthogonalLoop=1;jettySize=auto;html=1;entryX=0;entryY=0.5;entryDx=0;entryDy=0;labelBackgroundColor=default;strokeColor=default;fontFamily=Helvetica;fontSize=11;fontColor=default;endArrow=classic;" parent="1" source="SHAmAD_ecb-zwq3bcNpp-90" target="W-QXEZ3p7k4MNYrwXksq-1" edge="1">
          <mxGeometry relative="1" as="geometry" />
        </mxCell>
        <mxCell id="SHAmAD_ecb-zwq3bcNpp-90" value="process step specifc mapping of data" style="rounded=0;whiteSpace=wrap;html=1;fillColor=#F3AC0C;gradientColor=none;fontSize=10;" parent="1" vertex="1">
          <mxGeometry x="80" y="402.5" width="120" height="30" as="geometry" />
        </mxCell>
        <mxCell id="W-QXEZ3p7k4MNYrwXksq-2" style="edgeStyle=orthogonalEdgeStyle;shape=connector;rounded=0;orthogonalLoop=1;jettySize=auto;html=1;entryX=0;entryY=0.5;entryDx=0;entryDy=0;labelBackgroundColor=default;strokeColor=default;fontFamily=Helvetica;fontSize=11;fontColor=default;endArrow=classic;" parent="1" source="SHAmAD_ecb-zwq3bcNpp-92" target="W-QXEZ3p7k4MNYrwXksq-1" edge="1">
          <mxGeometry relative="1" as="geometry" />
        </mxCell>
        <mxCell id="SHAmAD_ecb-zwq3bcNpp-92" value="Fetch properties of fields" style="rounded=0;whiteSpace=wrap;html=1;fillColor=#F3AC0C;gradientColor=none;fontSize=10;" parent="1" vertex="1">
          <mxGeometry x="80" y="372.5" width="120" height="30" as="geometry" />
        </mxCell>
        <mxCell id="W-QXEZ3p7k4MNYrwXksq-4" style="edgeStyle=orthogonalEdgeStyle;shape=connector;rounded=0;orthogonalLoop=1;jettySize=auto;html=1;entryX=0;entryY=0.5;entryDx=0;entryDy=0;labelBackgroundColor=default;strokeColor=default;fontFamily=Helvetica;fontSize=11;fontColor=default;endArrow=classic;" parent="1" source="SHAmAD_ecb-zwq3bcNpp-93" target="W-QXEZ3p7k4MNYrwXksq-1" edge="1">
          <mxGeometry relative="1" as="geometry" />
        </mxCell>
        <mxCell id="SHAmAD_ecb-zwq3bcNpp-93" value="process step specific hash key assembly mapping" style="rounded=0;whiteSpace=wrap;html=1;fillColor=#F3AC0C;gradientColor=none;fontSize=10;" parent="1" vertex="1">
          <mxGeometry x="80" y="432.5" width="120" height="30" as="geometry" />
        </mxCell>
        <mxCell id="SHAmAD_ecb-zwq3bcNpp-109" style="shape=connector;rounded=0;orthogonalLoop=1;jettySize=auto;html=1;labelBackgroundColor=default;strokeColor=default;fontFamily=Helvetica;fontSize=11;fontColor=default;endArrow=classic;dashed=1;" parent="1" source="SHAmAD_ecb-zwq3bcNpp-94" target="SHAmAD_ecb-zwq3bcNpp-108" edge="1">
          <mxGeometry relative="1" as="geometry" />
        </mxCell>
        <mxCell id="SHAmAD_ecb-zwq3bcNpp-94" value="Model Documentation" style="shape=note;whiteSpace=wrap;html=1;backgroundOutline=1;darkOpacity=0.05;size=15;" parent="1" vertex="1">
          <mxGeometry x="390" y="200" width="105" height="50" as="geometry" />
        </mxCell>
        <mxCell id="SHAmAD_ecb-zwq3bcNpp-111" style="edgeStyle=none;shape=connector;rounded=0;orthogonalLoop=1;jettySize=auto;html=1;dashed=1;labelBackgroundColor=default;strokeColor=default;fontFamily=Helvetica;fontSize=11;fontColor=default;endArrow=classic;" parent="1" source="SHAmAD_ecb-zwq3bcNpp-95" target="SHAmAD_ecb-zwq3bcNpp-108" edge="1">
          <mxGeometry relative="1" as="geometry" />
        </mxCell>
        <mxCell id="SHAmAD_ecb-zwq3bcNpp-95" value="Mapping Documentation" style="shape=note;whiteSpace=wrap;html=1;backgroundOutline=1;darkOpacity=0.05;size=15;" parent="1" vertex="1">
          <mxGeometry x="390" y="250" width="105" height="40" as="geometry" />
        </mxCell>
        <mxCell id="SHAmAD_ecb-zwq3bcNpp-100" style="edgeStyle=orthogonalEdgeStyle;shape=connector;rounded=0;orthogonalLoop=1;jettySize=auto;html=1;labelBackgroundColor=default;strokeColor=default;fontFamily=Helvetica;fontSize=11;fontColor=default;endArrow=classic;" parent="1" source="SHAmAD_ecb-zwq3bcNpp-96" target="SHAmAD_ecb-zwq3bcNpp-98" edge="1">
          <mxGeometry relative="1" as="geometry">
            <mxPoint x="240" y="252.5" as="targetPoint" />
          </mxGeometry>
        </mxCell>
        <mxCell id="SHAmAD_ecb-zwq3bcNpp-96" value="Mapping of fields to model" style="rounded=0;whiteSpace=wrap;html=1;fillColor=#F3AC0C;gradientColor=none;fontSize=10;" parent="1" vertex="1">
          <mxGeometry x="80" y="257.5" width="120" height="25" as="geometry" />
        </mxCell>
        <mxCell id="SHAmAD_ecb-zwq3bcNpp-99" style="edgeStyle=orthogonalEdgeStyle;shape=connector;rounded=0;orthogonalLoop=1;jettySize=auto;html=1;entryX=0;entryY=0.5;entryDx=0;entryDy=0;labelBackgroundColor=default;strokeColor=default;fontFamily=Helvetica;fontSize=11;fontColor=default;endArrow=classic;" parent="1" source="SHAmAD_ecb-zwq3bcNpp-97" target="SHAmAD_ecb-zwq3bcNpp-98" edge="1">
          <mxGeometry relative="1" as="geometry" />
        </mxCell>
        <mxCell id="SHAmAD_ecb-zwq3bcNpp-97" value="Data Vault&amp;nbsp;Tables &amp;amp; Relations" style="rounded=0;whiteSpace=wrap;html=1;fillColor=#F3AC0C;gradientColor=none;fontSize=10;" parent="1" vertex="1">
          <mxGeometry x="80" y="232.5" width="120" height="25" as="geometry" />
        </mxCell>
        <mxCell id="SHAmAD_ecb-zwq3bcNpp-101" style="edgeStyle=orthogonalEdgeStyle;shape=connector;rounded=0;orthogonalLoop=1;jettySize=auto;html=1;labelBackgroundColor=default;strokeColor=default;fontFamily=Helvetica;fontSize=11;fontColor=default;endArrow=classic;" parent="1" source="SHAmAD_ecb-zwq3bcNpp-98" target="SHAmAD_ecb-zwq3bcNpp-94" edge="1">
          <mxGeometry relative="1" as="geometry" />
        </mxCell>
        <mxCell id="SHAmAD_ecb-zwq3bcNpp-102" style="edgeStyle=orthogonalEdgeStyle;shape=connector;rounded=0;orthogonalLoop=1;jettySize=auto;html=1;labelBackgroundColor=default;strokeColor=default;fontFamily=Helvetica;fontSize=11;fontColor=default;endArrow=classic;" parent="1" source="SHAmAD_ecb-zwq3bcNpp-98" target="SHAmAD_ecb-zwq3bcNpp-95" edge="1">
          <mxGeometry relative="1" as="geometry" />
        </mxCell>
        <mxCell id="SHAmAD_ecb-zwq3bcNpp-98" value="Documentation&lt;br&gt;Generator" style="rounded=1;whiteSpace=wrap;html=1;" parent="1" vertex="1">
          <mxGeometry x="240" y="232.5" width="105" height="40" as="geometry" />
        </mxCell>
        <mxCell id="SHAmAD_ecb-zwq3bcNpp-116" style="edgeStyle=none;shape=connector;rounded=0;orthogonalLoop=1;jettySize=auto;html=1;labelBackgroundColor=default;strokeColor=default;fontFamily=Helvetica;fontSize=11;fontColor=default;endArrow=classic;" parent="1" source="SHAmAD_ecb-zwq3bcNpp-105" target="SHAmAD_ecb-zwq3bcNpp-115" edge="1">
          <mxGeometry relative="1" as="geometry" />
        </mxCell>
        <mxCell id="SHAmAD_ecb-zwq3bcNpp-105" value="Create Statements" style="shape=note;whiteSpace=wrap;html=1;backgroundOutline=1;darkOpacity=0.05;size=15;" parent="1" vertex="1">
          <mxGeometry x="390" y="307.5" width="105" height="50" as="geometry" />
        </mxCell>
        <mxCell id="SHAmAD_ecb-zwq3bcNpp-114" style="edgeStyle=none;shape=connector;rounded=0;orthogonalLoop=1;jettySize=auto;html=1;entryX=0.007;entryY=0.421;entryDx=0;entryDy=0;entryPerimeter=0;labelBackgroundColor=default;strokeColor=default;fontFamily=Helvetica;fontSize=11;fontColor=default;endArrow=classic;" parent="1" source="SHAmAD_ecb-zwq3bcNpp-108" target="SHAmAD_ecb-zwq3bcNpp-112" edge="1">
          <mxGeometry relative="1" as="geometry" />
        </mxCell>
        <mxCell id="SHAmAD_ecb-zwq3bcNpp-171" style="edgeStyle=none;shape=connector;rounded=0;orthogonalLoop=1;jettySize=auto;html=1;entryX=0;entryY=0.5;entryDx=0;entryDy=0;labelBackgroundColor=default;strokeColor=default;fontFamily=Helvetica;fontSize=11;fontColor=default;endArrow=classic;" parent="1" source="SHAmAD_ecb-zwq3bcNpp-108" target="SHAmAD_ecb-zwq3bcNpp-113" edge="1">
          <mxGeometry relative="1" as="geometry" />
        </mxCell>
        <mxCell id="SHAmAD_ecb-zwq3bcNpp-108" value="DWH Developer" style="shape=umlActor;verticalLabelPosition=bottom;verticalAlign=top;html=1;outlineConnect=0;fontFamily=Helvetica;fontSize=11;fontColor=default;" parent="1" vertex="1">
          <mxGeometry x="550" y="210" width="30" height="60" as="geometry" />
        </mxCell>
        <mxCell id="SHAmAD_ecb-zwq3bcNpp-124" style="edgeStyle=none;shape=connector;rounded=0;orthogonalLoop=1;jettySize=auto;html=1;labelBackgroundColor=default;strokeColor=default;fontFamily=Helvetica;fontSize=11;fontColor=default;endArrow=classic;" parent="1" source="SHAmAD_ecb-zwq3bcNpp-112" target="SHAmAD_ecb-zwq3bcNpp-118" edge="1">
          <mxGeometry relative="1" as="geometry" />
        </mxCell>
        <mxCell id="SHAmAD_ecb-zwq3bcNpp-112" value="deployment code&lt;br&gt;fetch code&lt;br&gt;stage code&lt;br&gt;load code" style="shape=process;whiteSpace=wrap;html=1;backgroundOutline=1;fontFamily=Helvetica;fontSize=11;fontColor=default;" parent="1" vertex="1">
          <mxGeometry x="650" y="213.75" width="140" height="70" as="geometry" />
        </mxCell>
        <mxCell id="SHAmAD_ecb-zwq3bcNpp-125" style="edgeStyle=none;shape=connector;rounded=0;orthogonalLoop=1;jettySize=auto;html=1;labelBackgroundColor=default;strokeColor=default;fontFamily=Helvetica;fontSize=11;fontColor=default;endArrow=classic;exitX=1;exitY=0.5;exitDx=0;exitDy=0;" parent="1" source="SHAmAD_ecb-zwq3bcNpp-113" target="SHAmAD_ecb-zwq3bcNpp-118" edge="1">
          <mxGeometry relative="1" as="geometry" />
        </mxCell>
        <mxCell id="SHAmAD_ecb-zwq3bcNpp-113" value="load famework &lt;br&gt;libaries" style="shape=process;whiteSpace=wrap;html=1;backgroundOutline=1;fontFamily=Helvetica;fontSize=11;fontColor=default;" parent="1" vertex="1">
          <mxGeometry x="650" y="171.25" width="140" height="42.5" as="geometry" />
        </mxCell>
        <mxCell id="SHAmAD_ecb-zwq3bcNpp-123" style="edgeStyle=none;shape=connector;rounded=0;orthogonalLoop=1;jettySize=auto;html=1;labelBackgroundColor=default;strokeColor=default;fontFamily=Helvetica;fontSize=11;fontColor=default;endArrow=classic;entryX=0.25;entryY=1;entryDx=0;entryDy=0;" parent="1" source="SHAmAD_ecb-zwq3bcNpp-115" target="SHAmAD_ecb-zwq3bcNpp-118" edge="1">
          <mxGeometry relative="1" as="geometry" />
        </mxCell>
        <mxCell id="SHAmAD_ecb-zwq3bcNpp-115" value="Create Statements" style="shape=note;whiteSpace=wrap;html=1;backgroundOutline=1;darkOpacity=0.05;size=15;dashed=1;" parent="1" vertex="1">
          <mxGeometry x="670" y="307.5" width="105" height="50" as="geometry" />
        </mxCell>
        <mxCell id="SHAmAD_ecb-zwq3bcNpp-126" style="edgeStyle=none;shape=connector;rounded=0;orthogonalLoop=1;jettySize=auto;html=1;labelBackgroundColor=default;strokeColor=default;fontFamily=Helvetica;fontSize=11;fontColor=default;endArrow=classic;" parent="1" source="SHAmAD_ecb-zwq3bcNpp-118" target="SHAmAD_ecb-zwq3bcNpp-117" edge="1">
          <mxGeometry relative="1" as="geometry" />
        </mxCell>
        <mxCell id="SHAmAD_ecb-zwq3bcNpp-118" value="CI/CD" style="rounded=1;whiteSpace=wrap;html=1;" parent="1" vertex="1">
          <mxGeometry x="820" y="232.5" width="70" height="40" as="geometry" />
        </mxCell>
        <mxCell id="SHAmAD_ecb-zwq3bcNpp-119" value="deployment code&lt;br&gt;fetch code&lt;br&gt;stage code&lt;br&gt;load code" style="shape=process;whiteSpace=wrap;html=1;backgroundOutline=1;fontFamily=Helvetica;fontSize=11;fontColor=default;dashed=1;" parent="1" vertex="1">
          <mxGeometry x="950" y="216.25" width="140" height="70" as="geometry" />
        </mxCell>
        <mxCell id="SHAmAD_ecb-zwq3bcNpp-120" value="famework libraries" style="shape=process;whiteSpace=wrap;html=1;backgroundOutline=1;fontFamily=Helvetica;fontSize=11;fontColor=default;dashed=1;" parent="1" vertex="1">
          <mxGeometry x="950" y="173.75" width="140" height="42.5" as="geometry" />
        </mxCell>
        <mxCell id="SHAmAD_ecb-zwq3bcNpp-121" value="Create Statements" style="shape=note;whiteSpace=wrap;html=1;backgroundOutline=1;darkOpacity=0.05;size=15;dashed=1;" parent="1" vertex="1">
          <mxGeometry x="967.5" y="292.5" width="105" height="50" as="geometry" />
        </mxCell>
        <mxCell id="SHAmAD_ecb-zwq3bcNpp-223" value="Vault" style="shape=cylinder3;whiteSpace=wrap;html=1;boundedLbl=1;backgroundOutline=1;size=15;rounded=0;strokeColor=#b85450;fontFamily=Helvetica;fontSize=12;fillColor=#f8cecc;" parent="1" vertex="1">
          <mxGeometry x="960" y="400" width="120" height="63" as="geometry" />
        </mxCell>
        <mxCell id="SHAmAD_ecb-zwq3bcNpp-225" value="Source" style="rounded=1;whiteSpace=wrap;html=1;fillColor=#f8cecc;strokeColor=#b85450;" parent="1" vertex="1">
          <mxGeometry x="957.5" y="60" width="105" height="40" as="geometry" />
        </mxCell>
        <mxCell id="SHAmAD_ecb-zwq3bcNpp-226" value="" style="shape=flexArrow;endArrow=classic;html=1;rounded=0;labelBackgroundColor=default;strokeColor=#b85450;fontFamily=Helvetica;fontSize=10;fontColor=default;exitX=0;exitY=0;exitDx=100;exitDy=212.5;exitPerimeter=0;entryX=0.5;entryY=0;entryDx=0;entryDy=0;entryPerimeter=0;fillColor=#f8cecc;" parent="1" source="SHAmAD_ecb-zwq3bcNpp-117" target="SHAmAD_ecb-zwq3bcNpp-223" edge="1">
          <mxGeometry width="50" height="50" relative="1" as="geometry">
            <mxPoint x="870" y="442.5" as="sourcePoint" />
            <mxPoint x="1020" y="390" as="targetPoint" />
          </mxGeometry>
        </mxCell>
        <mxCell id="SHAmAD_ecb-zwq3bcNpp-227" value="" style="shape=flexArrow;endArrow=classic;html=1;rounded=0;labelBackgroundColor=default;strokeColor=#b85450;fontFamily=Helvetica;fontSize=10;fontColor=default;exitX=0.5;exitY=1;exitDx=0;exitDy=0;entryX=0.5;entryY=0;entryDx=0;entryDy=0;entryPerimeter=0;fillColor=#f8cecc;" parent="1" source="SHAmAD_ecb-zwq3bcNpp-225" edge="1">
          <mxGeometry width="50" height="50" relative="1" as="geometry">
            <mxPoint x="1009.5" y="105.25" as="sourcePoint" />
            <mxPoint x="1009.5" y="146.25" as="targetPoint" />
          </mxGeometry>
        </mxCell>
        <mxCell id="W-QXEZ3p7k4MNYrwXksq-6" style="edgeStyle=orthogonalEdgeStyle;shape=connector;rounded=0;orthogonalLoop=1;jettySize=auto;html=1;labelBackgroundColor=default;strokeColor=default;fontFamily=Helvetica;fontSize=11;fontColor=default;endArrow=classic;" parent="1" source="W-QXEZ3p7k4MNYrwXksq-1" target="W-QXEZ3p7k4MNYrwXksq-5" edge="1">
          <mxGeometry relative="1" as="geometry" />
        </mxCell>
        <mxCell id="W-QXEZ3p7k4MNYrwXksq-1" value="Code snippet Generator" style="rounded=1;whiteSpace=wrap;html=1;" parent="1" vertex="1">
          <mxGeometry x="240" y="380" width="105" height="40" as="geometry" />
        </mxCell>
        <mxCell id="W-QXEZ3p7k4MNYrwXksq-7" style="edgeStyle=none;shape=connector;rounded=0;orthogonalLoop=1;jettySize=auto;html=1;dashed=1;labelBackgroundColor=default;strokeColor=default;fontFamily=Helvetica;fontSize=11;fontColor=default;endArrow=classic;" parent="1" source="W-QXEZ3p7k4MNYrwXksq-5" edge="1">
          <mxGeometry relative="1" as="geometry">
            <mxPoint x="560" y="290" as="targetPoint" />
          </mxGeometry>
        </mxCell>
        <mxCell id="W-QXEZ3p7k4MNYrwXksq-5" value="code snippets" style="shape=note;whiteSpace=wrap;html=1;backgroundOutline=1;darkOpacity=0.05;size=15;" parent="1" vertex="1">
          <mxGeometry x="390" y="375" width="105" height="50" as="geometry" />
        </mxCell>
      </root>
    </mxGraphModel>
  </diagram>
</mxfile>
